<svg xmlns="http://www.w3.org/2000/svg" width="1400" height="760" viewBox="0 0 1400 760" role="img" aria-label="Spark Agent 工作台总览">
  <defs><linearGradient id="g" x1="0" x2="1" y1="0" y2="1"><stop stop-color="#7c5cff"/><stop offset=".55" stop-color="#22d3ee"/><stop offset="1" stop-color="#f59e0b"/></linearGradient><filter id="s"><feDropShadow dx="0" dy="24" stdDeviation="30" flood-color="#000" flood-opacity=".45"/></filter></defs>
  <rect width="1400" height="760" fill="#070a12"/><path d="M0 0h1400v760H0z" fill="url(#g)" opacity=".08"/><g opacity=".18" stroke="#94a3b8"><path d="M80 0v760M200 0v760M320 0v760M440 0v760M560 0v760M680 0v760M800 0v760M920 0v760M1040 0v760M1160 0v760M1280 0v760"/><path d="M0 80h1400M0 180h1400M0 280h1400M0 380h1400M0 480h1400M0 580h1400M0 680h1400"/></g>
  <rect x="44" y="42" width="1312" height="676" rx="34" fill="#0b1020" stroke="#263043" filter="url(#s)"/>
  <rect x="44" y="42" width="230" height="676" rx="34" fill="#111827"/><circle cx="78" cy="78" r="11" fill="#ff5f57"/><circle cx="108" cy="78" r="11" fill="#ffbd2e"/><circle cx="138" cy="78" r="11" fill="#28c840"/>
  <g fill="#cbd5e1" font-family="Inter,Arial" font-weight="700" font-size="24"><text x="82" y="148">新建任务</text><text x="82" y="214">任务面板</text><text x="82" y="280">无限画布</text><text x="82" y="346">助手</text></g>
  <rect x="304" y="86" width="780" height="430" rx="24" fill="#090d18" stroke="#263043"/><text x="344" y="142" fill="#fff" font-family="Inter,Arial" font-weight="900" font-size="42">代码开发优先的统一 Agent 面板</text><text x="344" y="190" fill="#94a3b8" font-family="Inter,Arial" font-size="24">侧边聊天 · 内置终端 · Git Review · Worktree · 调试模式 · 代码还原点</text>
  <g font-family="Inter,Arial" font-weight="800" font-size="20"><rect x="344" y="246" width="190" height="92" rx="18" fill="#172033" stroke="#334155"/><text x="374" y="302" fill="#dbeafe">Claude SDK</text><rect x="558" y="246" width="190" height="92" rx="18" fill="#172033" stroke="#334155"/><text x="608" y="302" fill="#dbeafe">Codex</text><rect x="772" y="246" width="220" height="92" rx="18" fill="#172033" stroke="#334155"/><text x="812" y="302" fill="#dbeafe">MCP / Skills</text><path d="M535 292h22M748 292h23" stroke="#22d3ee" stroke-width="4"/></g>
  <rect x="344" y="376" width="648" height="84" rx="18" fill="#111827" stroke="#334155"/><text x="376" y="428" fill="#a7f3d0" font-family="Inter,Arial" font-weight="800" font-size="22">可审计上下文：工具调用、文件变更、任务进度、团队 dispatch、用量账本</text>
  <rect x="1110" y="86" width="206" height="560" rx="24" fill="#111827" stroke="#263043"/><text x="1140" y="134" fill="#fff" font-family="Inter,Arial" font-weight="900" font-size="28">任务队列</text><g font-family="Inter,Arial" font-weight="800" font-size="18"><rect x="1138" y="172" width="148" height="72" rx="14" fill="#182033"/><text x="1164" y="216" fill="#bef264">调试通过</text><rect x="1138" y="264" width="148" height="72" rx="14" fill="#182033"/><text x="1164" y="308" fill="#93c5fd">代码审查</text><rect x="1138" y="356" width="148" height="72" rx="14" fill="#182033"/><text x="1164" y="400" fill="#fcd34d">视频生成</text></g>
  <rect x="304" y="548" width="780" height="98" rx="24" fill="#161b2b" stroke="#263043"/><text x="344" y="608" fill="#fff" font-family="Inter,Arial" font-size="26">Ask, edit, run tasks...  ↵</text>
</svg>
