<svg xmlns="http://www.w3.org/2000/svg" width="96" height="96" viewBox="0 0 96 96" role="img" aria-label="animal-turtle"><defs><linearGradient id="bg" x1="18" y1="8" x2="82" y2="92"><stop stop-color="#A879D6"/><stop offset="1" stop-color="#3B2D4D"/></linearGradient><radialGradient id="glow" cx="32%" cy="24%" r="58%"><stop stop-color="#fff" stop-opacity=".56"/><stop offset="1" stop-color="#fff" stop-opacity="0"/></radialGradient></defs><rect width="96" height="96" rx="28" fill="url(#bg)"/><circle cx="24" cy="22" r="22" fill="url(#glow)"/><circle cx="76" cy="72" r="16" fill="#F4C3A1" opacity=".22"/><path d="M13 76C28 87 63 90 84 68" fill="none" stroke="#fff" stroke-opacity=".18" stroke-width="5" stroke-linecap="round"/><path d="M30 31c-16-8-15-19 0-15" fill="#F6E2C3"/><path d="M66 31c16-8 15-19 0-15" fill="#F6E2C3"/><circle cx="48" cy="50" r="28" fill="#F6E2C3"/><circle cx="38" cy="47" r="4" fill="#263238"/><circle cx="58" cy="47" r="4" fill="#263238"/><path d="M45 56c2 2 4 2 6 0" fill="none" stroke="#263238" stroke-width="3" stroke-linecap="round"/><path d="M37 63c7 6 15 6 22 0" fill="none" stroke="#263238" stroke-width="3" stroke-linecap="round" opacity=".65"/><circle cx="31" cy="58" r="5" fill="#64B6AC" opacity=".22"/><circle cx="65" cy="58" r="5" fill="#64B6AC" opacity=".22"/></svg>
