<svg xmlns="http://www.w3.org/2000/svg" width="96" height="96" viewBox="0 0 96 96" role="img" aria-label="person-support"><defs><linearGradient id="bg" x1="18" y1="8" x2="82" y2="92"><stop stop-color="#A879D6"/><stop offset="1" stop-color="#3B2D4D"/></linearGradient><radialGradient id="glow" cx="32%" cy="24%" r="58%"><stop stop-color="#fff" stop-opacity=".56"/><stop offset="1" stop-color="#fff" stop-opacity="0"/></radialGradient></defs><rect width="96" height="96" rx="28" fill="url(#bg)"/><circle cx="24" cy="22" r="22" fill="url(#glow)"/><circle cx="76" cy="72" r="16" fill="#F4C3A1" opacity=".22"/><path d="M13 76C28 87 63 90 84 68" fill="none" stroke="#fff" stroke-opacity=".18" stroke-width="5" stroke-linecap="round"/><path d="M27 83c4-15 14-23 21-23s17 8 21 23Z" fill="#3B2D4D"/><circle cx="48" cy="47" r="25" fill="#D89A73"/><path d="M27 40c5-17 18-24 33-20 9 2 15 8 17 17-17 4-35 5-50 3Z" fill="#5A3A2E"/><circle cx="39" cy="49" r="3.5" fill="#24313A"/><circle cx="57" cy="49" r="3.5" fill="#24313A"/><path d="M40 61c6 5 12 5 18 0" fill="none" stroke="#24313A" stroke-width="3" stroke-linecap="round"/><path d="M33 76h30" stroke="#F4C3A1" stroke-width="5" stroke-linecap="round" opacity=".8"/></svg>
